<?xml version="1.0" standalone="no"?>
<!DOCTYPE svg PUBLIC "-//W3C//DTD SVG 20010904//EN"
 "http://www.w3.org/TR/2001/REC-SVG-20010904/DTD/svg10.dtd">
<svg version="1.0" xmlns="http://www.w3.org/2000/svg"
 width="500.000000pt" height="500.000000pt" viewBox="0 0 500.000000 500.000000"
 preserveAspectRatio="xMidYMid meet">
<metadata>
Created by potrace 1.16, written by Peter Selinger 2001-2019
</metadata>
<g transform="translate(0.000000,500.000000) scale(0.100000,-0.100000)"
fill="#000000" stroke="none">
<path d="M2035 3406 c-43 -43 -59 -152 -76 -545 -18 -384 10 -853 57 -970 20
-51 55 -77 114 -86 46 -7 390 20 700 55 164 18 176 21 198 45 27 32 28 49 2
75 -19 19 -33 20 -302 20 -253 0 -430 -8 -540 -26 l-38 -6 0 304 c0 166 7 404
15 528 25 391 17 578 -26 613 -30 24 -75 22 -104 -7z"/>
<path d="M2592 2668 c3 -7 32 -17 65 -21 l60 -8 7 -107 c8 -126 15 -164 28
-156 6 4 9 55 7 133 l-4 126 48 3 c61 4 58 24 -4 34 -81 12 -211 9 -207 -4z"/>
<path d="M2926 2608 c86 -92 85 -78 15 -154 -33 -37 -61 -71 -61 -75 0 -24 34
-3 84 54 l56 62 23 -30 c44 -59 64 -78 76 -74 9 3 -1 22 -28 57 -23 28 -41 56
-41 62 0 5 20 38 45 71 25 34 43 65 39 68 -3 3 -26 -18 -51 -47 -24 -28 -50
-52 -57 -52 -7 0 -37 23 -68 50 -69 61 -87 65 -32 8z"/>
</g>
</svg>
